<?xml version="1.0" encoding="UTF-8"?>
<svg id="Layer_2" data-name="Layer 2" xmlns="http://www.w3.org/2000/svg" viewBox="0 0 152.33 145.36">
  <defs>
    <style>
      .cls-1 {
        fill: #f35226;
      }
    </style>
  </defs>
  <g id="Layer_1-2" data-name="Layer 1">
    <g>
      <path class="cls-1" d="M152.33.02v145.33h-24.73V21.73h-52.83V.02h77.55Z"/>
      <path class="cls-1" d="M79.1,145.33c-25.17.53-40.09-17.23-40.32-42.11.01-1.56-.14-2.75,1.36-2.98,4.19-.64,19.63-2.95,23.83-3.58,1.5-.31,1.44,1.08,1.56,2.36,2.25,39.52,31.54,21.02,14.95-4.11-3.2-4.69-7.24-8.04-11.37-11.33-3.71-3.21-9.74-8.59-13.85-11.84-13.54-11.18-19.32-29.93-14.56-46.52C45.27,8.61,57.81-.14,77.55,0c15.85.11,30.47,10.81,34.03,25.19.55,2.09,3.53,14.88.64,15.18-3.97.51-20.42,2.54-24.38,3.01-.71.1-1-.28-1.08-.89-.04-2.84.04-6.45-.68-9.48-2.12-13.54-16.79-13.2-17.07,1.91.38,11.22,9.27,18.19,17.12,25.33,9.28,8.17,19.2,16.24,25.15,27.24,13.7,23.82-1.67,59.03-31.81,57.84-.09,0-.27,0-.37,0Z"/>
      <path class="cls-1" d="M0,145.35V.02h24.73v123.62h52.83v21.71H0Z"/>
    </g>
  </g>
</svg>